<?xml version="1.0" standalone="no"?>
<!DOCTYPE svg PUBLIC "-//W3C//DTD SVG 20010904//EN"
 "http://www.w3.org/TR/2001/REC-SVG-20010904/DTD/svg10.dtd">
<svg version="1.0" xmlns="http://www.w3.org/2000/svg"
 width="700.000000pt" height="467.000000pt" viewBox="0 0 700.000000 467.000000"
 preserveAspectRatio="xMidYMid meet">

<g transform="translate(0.000000,467.000000) scale(0.100000,-0.100000)"
fill="#000000" stroke="none">
<path d="M0 2335 l0 -2335 3500 0 3500 0 0 2335 0 2335 -3500 0 -3500 0 0
-2335z m4160 2281 c0 -3 -4 -8 -10 -11 -5 -3 -10 -1 -10 4 0 6 5 11 10 11 6 0
10 -2 10 -4z m1360 -216 c0 -5 -5 -10 -11 -10 -5 0 -7 5 -4 10 3 6 8 10 11 10
2 0 4 -4 4 -10z m-800 -134 c0 -3 -4 -8 -10 -11 -5 -3 -10 -1 -10 4 0 6 5 11
10 11 6 0 10 -2 10 -4z m-3205 -226 c3 -5 1 -10 -4 -10 -6 0 -11 5 -11 10 0 6
2 10 4 10 3 0 8 -4 11 -10z m725 -30 c0 -5 -4 -10 -10 -10 -5 0 -10 5 -10 10
0 6 5 10 10 10 6 0 10 -4 10 -10z m4490 -130 c0 -5 -7 -10 -16 -10 -8 0 -12 5
-9 10 3 6 10 10 16 10 5 0 9 -4 9 -10z m-2660 -14 c0 -3 -4 -8 -10 -11 -5 -3
-10 -1 -10 4 0 6 5 11 10 11 6 0 10 -2 10 -4z m-3980 -146 c0 -5 -4 -10 -10
-10 -5 0 -10 5 -10 10 0 6 5 10 10 10 6 0 10 -4 10 -10z m4920 -120 c0 -5 -4
-10 -10 -10 -5 0 -10 5 -10 10 0 6 5 10 10 10 6 0 10 -4 10 -10z m-2950 -40
c0 -5 -2 -10 -4 -10 -3 0 -8 5 -11 10 -3 6 -1 10 4 10 6 0 11 -4 11 -10z
m2810 -10 c0 -5 -5 -10 -11 -10 -5 0 -7 5 -4 10 3 6 8 10 11 10 2 0 4 -4 4
-10z m-4760 -9 c0 -6 -4 -13 -10 -16 -5 -3 -10 1 -10 9 0 9 5 16 10 16 6 0 10
-4 10 -9z m4310 -15 c0 -3 -4 -8 -10 -11 -5 -3 -10 -1 -10 4 0 6 5 11 10 11 6
0 10 -2 10 -4z m797 -82 c-9 -9 -28 6 -21 18 4 6 10 6 17 -1 6 -6 8 -13 4 -17z
m153 -224 c0 -5 -5 -10 -11 -10 -5 0 -7 5 -4 10 3 6 8 10 11 10 2 0 4 -4 4
-10z m-430 -190 c0 -5 -2 -10 -4 -10 -3 0 -8 5 -11 10 -3 6 -1 10 4 10 6 0 11
-4 11 -10z m-2770 -10 c0 -5 -2 -10 -4 -10 -3 0 -8 5 -11 10 -3 6 -1 10 4 10
6 0 11 -4 11 -10z m-1000 -30 c0 -5 -5 -10 -11 -10 -5 0 -7 5 -4 10 3 6 8 10
11 10 2 0 4 -4 4 -10z m3668 -91 c-2 -6 -8 -10 -13 -10 -5 0 -11 4 -13 10 -2
6 4 11 13 11 9 0 15 -5 13 -11z m-1448 -59 c0 -5 -4 -10 -10 -10 -5 0 -10 5
-10 10 0 6 5 10 10 10 6 0 10 -4 10 -10z m2430 -90 c0 -5 -5 -10 -11 -10 -5 0
-7 5 -4 10 3 6 8 10 11 10 2 0 4 -4 4 -10z m-2513 -316 c-3 -3 -12 -4 -19 -1
-8 3 -5 6 6 6 11 1 17 -2 13 -5z m3469 -31 c-10 -10 -19 5 -10 18 6 11 8 11
12 0 2 -7 1 -15 -2 -18z m-1121 -3 c-3 -5 -12 -10 -18 -10 -7 0 -6 4 3 10 19
12 23 12 15 0z m-2091 -26 c24 -23 19 -34 -14 -34 -25 0 -30 4 -30 25 0 29 21
33 44 9z m-1924 -38 c0 -3 -4 -8 -10 -11 -5 -3 -10 -1 -10 4 0 6 5 11 10 11 6
0 10 -2 10 -4z m1042 -48 c-7 -7 -12 -8 -12 -2 0 14 12 26 19 19 2 -3 -1 -11
-7 -17z m391 -3 c-3 -9 -8 -14 -10 -11 -3 3 -2 9 2 15 9 16 15 13 8 -4z m3407
5 c0 -5 -5 -10 -11 -10 -5 0 -7 5 -4 10 3 6 8 10 11 10 2 0 4 -4 4 -10z
m-3820 -50 c0 -4 -7 -11 -16 -14 -13 -5 -14 -4 -6 7 7 8 8 18 4 22 -4 5 -1 5
6 1 6 -4 12 -11 12 -16z m430 -1 c0 -10 -5 -21 -12 -25 -7 -5 -8 -2 -3 7 6 11
5 12 -6 2 -15 -15 -67 -17 -88 -4 -9 6 -10 10 -2 16 7 4 18 1 26 -5 8 -7 20
-10 27 -7 8 3 6 6 -5 6 -10 1 -15 6 -12 11 4 6 11 8 16 5 5 -4 9 -2 9 3 0 5
11 10 25 10 17 0 25 -6 25 -19z m1770 -13 c0 -3 -4 -8 -10 -11 -5 -3 -10 -1
-10 4 0 6 5 11 10 11 6 0 10 -2 10 -4z m-1445 -64 c-3 -3 -11 0 -18 7 -9 10
-8 11 6 5 10 -3 15 -9 12 -12z m745 -12 c0 -5 -2 -10 -4 -10 -3 0 -8 5 -11 10
-3 6 -1 10 4 10 6 0 11 -4 11 -10z m-960 -4 c0 -3 -4 -8 -10 -11 -5 -3 -10 -1
-10 4 0 6 5 11 10 11 6 0 10 -2 10 -4z m273 -66 c-6 -23 -33 -27 -33 -6 0 13
13 23 32 25 3 1 4 -8 1 -19z m3467 -20 c0 -5 -5 -10 -11 -10 -5 0 -7 5 -4 10
3 6 8 10 11 10 2 0 4 -4 4 -10z m-4050 -24 c0 -2 -7 -7 -16 -10 -8 -3 -12 -2
-9 4 6 10 25 14 25 6z m927 -56 c-2 -24 -10 -25 -28 -3 -12 15 -12 16 4 10 9
-3 17 -2 17 3 0 6 2 10 4 10 3 0 4 -9 3 -20z m-556 -3 c-1 -12 -15 -9 -19 4
-3 6 1 10 8 8 6 -3 11 -8 11 -12z m230 -36 c1 -9 1 -20 0 -24 -1 -4 9 -1 22 8
13 8 27 12 30 9 4 -4 13 -1 22 6 13 10 18 10 33 -3 15 -14 19 -14 40 3 25 21
29 32 7 24 -11 -5 -13 -2 -9 9 9 23 43 0 36 -25 -3 -14 1 -18 21 -16 16 1 23
7 20 15 -3 7 0 13 7 13 6 0 9 -4 6 -9 -4 -5 7 -23 23 -39 17 -16 29 -31 28
-33 -1 -3 3 -1 8 4 6 5 2 15 -11 26 -21 17 -21 18 -4 41 l17 23 19 -31 c14
-24 21 -29 31 -20 12 10 18 0 14 -24 0 -5 5 -8 13 -8 9 0 12 -7 9 -19 -3 -12
-11 -17 -19 -14 -8 3 -17 -2 -20 -11 -5 -12 -10 -14 -19 -6 -10 9 -13 7 -11
-7 2 -10 -2 -22 -8 -26 -8 -6 -7 -10 2 -14 20 -8 -33 -33 -59 -28 -29 6 -62
-13 -55 -31 3 -8 1 -14 -4 -14 -12 0 -24 46 -15 59 9 16 -11 13 -24 -3 -9 -10
-8 -16 4 -26 18 -15 20 -35 3 -24 -6 4 -8 3 -5 -4 9 -14 -3 -43 -15 -36 -5 3
-16 -2 -23 -12 -8 -11 -15 -15 -15 -11 0 4 -10 -1 -22 -13 -12 -11 -27 -20
-32 -20 -6 0 -3 5 7 11 9 5 17 15 17 20 0 6 -4 8 -9 5 -5 -4 -20 7 -33 23 -14
16 -34 34 -47 40 -12 7 -19 16 -16 22 4 5 0 9 -8 9 -8 0 -20 6 -26 14 -9 11
-6 18 13 32 14 11 26 32 28 49 1 17 7 33 13 37 6 5 5 12 -3 20 -9 9 -12 9 -12
0 0 -7 -4 -12 -10 -12 -5 0 -10 9 -10 19 0 14 6 19 18 16 15 -3 18 2 14 22 -3
18 -7 21 -13 11 -5 -7 -9 -8 -9 -2 0 35 38 12 41 -25z m-191 29 c0 -5 -5 -10
-11 -10 -5 0 -7 5 -4 10 3 6 8 10 11 10 2 0 4 -4 4 -10z m1705 0 c-3 -5 -11
-10 -16 -10 -6 0 -7 5 -4 10 3 6 11 10 16 10 6 0 7 -4 4 -10z m-1490 -20 c3
-5 1 -10 -4 -10 -6 0 -11 5 -11 10 0 6 2 10 4 10 3 0 8 -4 11 -10z m40 0 c3
-5 1 -10 -4 -10 -6 0 -11 5 -11 10 0 6 2 10 4 10 3 0 8 -4 11 -10z m-260 -20
c3 -6 -4 -10 -17 -10 -18 0 -20 2 -8 10 19 12 18 12 25 0z m825 -40 c0 -5 -7
-10 -16 -10 -8 0 -12 5 -9 10 3 6 10 10 16 10 5 0 9 -4 9 -10z m-760 -23 c0
-15 6 -24 15 -24 11 0 12 4 5 11 -17 17 -11 32 13 33 12 0 16 -1 10 -4 -8 -3
-11 -14 -7 -28 6 -23 4 -24 -38 -22 -34 2 -44 6 -44 19 0 13 6 16 21 12 20 -6
20 -6 0 10 -20 15 -20 15 3 16 16 0 22 -6 22 -23z m1467 1 c-3 -8 -6 -5 -6 6
-1 11 2 17 5 13 3 -3 4 -12 1 -19z m-1400 -55 c-5 -7 -15 -13 -21 -13 -6 0 -3
6 6 14 12 9 14 16 7 23 -7 7 -8 17 -3 25 6 9 10 6 14 -12 4 -14 2 -31 -3 -37z
m452 -4 c-6 -3 -10 -10 -9 -15 1 -5 -3 -10 -9 -12 -7 -2 -11 8 -9 26 2 26 4
28 20 19 10 -7 13 -14 7 -18z m-639 -49 c0 -5 -4 -10 -10 -10 -5 0 -10 5 -10
10 0 6 5 10 10 10 6 0 10 -4 10 -10z m502 -22 c-12 -12 -35 -1 -27 12 3 5 13
6 21 3 10 -4 12 -9 6 -15z m-672 2 c0 -5 -4 -10 -10 -10 -5 0 -10 5 -10 10 0
6 5 10 10 10 6 0 10 -4 10 -10z m2106 -36 c-18 -17 -26 -18 -26 -1 0 7 9 13
20 14 18 2 18 0 6 -13z m-696 -8 c0 -3 -4 -8 -10 -11 -5 -3 -10 -1 -10 4 0 6
5 11 10 11 6 0 10 -2 10 -4z m-322 -26 c-6 -9 -20 -17 -32 -17 -20 -2 -19 -1
3 11 23 13 23 14 5 19 -13 3 -11 4 7 4 22 -1 25 -4 17 -17z m272 10 c0 -5 -5
-10 -11 -10 -5 0 -7 5 -4 10 3 6 8 10 11 10 2 0 4 -4 4 -10z m770 -20 c0 -5
-4 -10 -10 -10 -5 0 -10 5 -10 10 0 6 5 10 10 10 6 0 10 -4 10 -10z m-1076
-22 c5 2 6 -4 3 -12 -4 -10 -1 -13 8 -9 8 3 12 10 8 17 -3 6 -2 7 3 3 5 -5 9
-12 9 -15 0 -4 4 -14 10 -22 8 -13 7 -13 -8 -1 -17 13 -23 6 -18 -21 0 -5 -4
-8 -10 -8 -6 0 -8 7 -5 16 5 13 2 15 -14 11 -13 -3 -18 -1 -13 6 4 6 0 8 -10
4 -23 -9 -43 19 -27 38 10 12 16 12 34 3 11 -7 25 -11 30 -10z m-84 -10 c0 -4
0 -11 0 -15 0 -15 -23 -8 -25 8 -2 9 4 16 11 16 8 0 14 -4 14 -9z m-1370 -8
c0 -5 -4 -10 -10 -10 -5 0 -10 5 -10 10 0 6 5 10 10 10 6 0 10 -4 10 -10z
m870 -10 c0 -5 -4 -10 -10 -10 -5 0 -10 5 -10 10 0 6 5 10 10 10 6 0 10 -4 10
-10z m710 -74 c0 -3 -4 -8 -10 -11 -5 -3 -10 -1 -10 4 0 6 5 11 10 11 6 0 10
-2 10 -4z m-155 -36 c-3 -5 -12 -10 -18 -10 -7 0 -6 4 3 10 19 12 23 12 15 0z
m335 -20 c0 -5 -5 -10 -11 -10 -5 0 -7 5 -4 10 3 6 8 10 11 10 2 0 4 -4 4 -10z
m-1310 -4 c0 -3 -4 -8 -10 -11 -5 -3 -10 -1 -10 4 0 6 5 11 10 11 6 0 10 -2
10 -4z m-150 -86 c0 -5 -4 -10 -10 -10 -5 0 -10 5 -10 10 0 6 5 10 10 10 6 0
10 -4 10 -10z m770 -60 c0 -5 -4 -10 -10 -10 -5 0 -10 5 -10 10 0 6 5 10 10
10 6 0 10 -4 10 -10z m970 -50 c0 -5 -7 -10 -16 -10 -8 0 -12 5 -9 10 3 6 10
10 16 10 5 0 9 -4 9 -10z m-780 -10 c0 -5 -5 -10 -11 -10 -5 0 -7 5 -4 10 3 6
8 10 11 10 2 0 4 -4 4 -10z m-1020 -100 c0 -5 -5 -10 -11 -10 -5 0 -7 5 -4 10
3 6 8 10 11 10 2 0 4 -4 4 -10z m170 -60 c0 -5 -4 -10 -10 -10 -5 0 -10 5 -10
10 0 6 5 10 10 10 6 0 10 -4 10 -10z"/>
<path d="M3494 1884 c3 -8 1 -14 -4 -14 -6 0 -10 -4 -10 -9 0 -13 48 -1 61 16
7 8 8 13 3 12 -5 -1 -11 0 -14 1 -25 9 -41 7 -36 -6z"/>
<path d="M3575 1809 c-4 -6 -5 -11 -4 -12 2 -2 13 -9 24 -17 14 -10 17 -10 8
-1 -6 7 -9 20 -6 27 6 16 -13 19 -22 3z"/>
<path d="M3575 1730 c-3 -5 -1 -10 4 -10 6 0 11 5 11 10 0 6 -2 10 -4 10 -3 0
-8 -4 -11 -10z"/>
<path d="M3527 1724 c-4 -4 1 -13 11 -21 16 -12 16 -13 -3 -6 -17 6 -18 5 -5
-9 14 -15 30 -15 30 1 0 14 -26 42 -33 35z"/>
</g>
</svg>
