<?xml version="1.0" standalone="no"?>
<!DOCTYPE svg PUBLIC "-//W3C//DTD SVG 20010904//EN"
 "http://www.w3.org/TR/2001/REC-SVG-20010904/DTD/svg10.dtd">
<svg version="1.0" xmlns="http://www.w3.org/2000/svg"
 width="225.000000pt" height="225.000000pt" viewBox="0 0 225.000000 225.000000"
 preserveAspectRatio="xMidYMid meet">

<g transform="translate(0.000000,225.000000) scale(0.100000,-0.100000)"
fill="#000000" stroke="none">
<path d="M0 1590 l0 -660 22 0 c12 0 30 7 40 16 16 16 18 16 24 0 3 -9 12 -16
20 -16 8 0 14 -5 14 -11 0 -7 10 -9 25 -5 24 6 61 -8 78 -29 6 -6 10 -6 14 3
2 7 14 17 25 23 19 10 20 9 15 -13 -5 -19 -1 -27 23 -42 17 -9 30 -12 30 -7 0
6 7 11 15 11 8 0 15 -4 15 -10 0 -5 7 -10 15 -10 8 0 15 5 15 11 0 5 5 7 11 4
5 -4 24 -1 41 6 21 8 32 9 36 1 4 -5 18 -10 32 -9 14 0 33 -3 43 -7 12 -6 17
-4 17 8 0 18 25 22 36 5 4 -8 9 -7 14 2 7 10 11 10 24 0 13 -11 28 -11 73 -2
48 9 58 9 65 -4 5 -8 15 -12 23 -9 18 7 105 -31 105 -47 0 -9 4 -9 15 1 8 6
19 9 25 5 5 -3 10 -1 10 5 0 6 10 8 26 4 17 -4 29 -2 34 7 6 9 12 10 22 2 7
-6 24 -11 38 -10 14 1 39 -2 55 -6 22 -6 26 -5 15 3 -13 8 -12 10 3 10 10 0
27 -5 38 -10 14 -8 28 -6 56 7 27 12 38 14 41 5 4 -14 32 -16 32 -2 0 6 7 10
15 10 8 0 15 5 15 10 0 6 16 10 35 10 28 0 38 -5 45 -22 7 -18 9 -19 9 -5 1
11 9 17 25 17 13 0 29 7 36 15 7 8 22 15 33 15 11 0 26 8 33 18 12 15 15 15
24 2 8 -13 10 -13 10 2 0 9 3 23 6 31 3 8 -3 22 -12 32 -17 17 -17 17 5 10 16
-5 26 -3 32 6 13 20 11 37 -2 19 -8 -11 -9 -8 -4 13 3 16 2 26 -3 23 -5 -3 -6
9 -4 25 2 16 7 27 10 24 3 -3 14 2 24 11 14 13 15 20 7 31 -9 10 -6 13 14 13
14 0 28 7 31 16 5 13 9 14 20 5 20 -16 28 0 28 55 0 28 4 44 11 43 23 -2 57
14 57 27 0 8 5 14 11 14 8 0 8 4 2 13 -6 8 -6 19 1 32 12 21 36 32 36 16 0
-13 42 -5 51 10 4 7 16 8 30 4 30 -9 70 -45 63 -56 -5 -8 10 -13 29 -10 5 1 6
-3 3 -8 -4 -5 -2 -12 4 -16 6 -4 22 -29 36 -57 25 -50 26 -51 8 -90 -9 -21
-19 -36 -22 -33 -3 2 -17 -4 -32 -15 -19 -13 -26 -26 -23 -38 7 -28 -21 -45
-59 -38 -77 16 -106 18 -113 6 -5 -9 -1 -10 14 -5 37 11 45 -6 11 -23 -32 -16
-32 -16 -11 -26 16 -7 28 -6 41 2 13 8 27 8 52 0 18 -6 40 -13 48 -15 12 -4
12 -7 -4 -18 -18 -13 -18 -15 -2 -21 13 -5 16 -14 12 -38 -3 -17 -3 -25 0 -18
7 14 34 16 34 2 0 -20 31 -9 42 15 11 24 48 36 48 15 0 -5 -7 -10 -15 -10 -8
0 -15 -4 -15 -10 0 -5 7 -10 15 -10 8 0 15 5 15 10 0 6 7 10 15 10 8 0 15 -5
15 -10 0 -7 7 -7 21 0 16 9 24 8 38 -4 10 -9 20 -16 24 -16 3 0 6 112 7 249
l1 248 -30 6 c-55 11 -49 75 7 80 l22 1 0 413 0 413 -1125 0 -1125 -1 0 -659z
m1358 591 c4 -42 -12 -61 -52 -61 -39 0 -56 15 -56 51 0 37 31 58 73 50 27 -6
32 -12 35 -40z m-1138 -5 c0 -3 -4 -8 -10 -11 -5 -3 -10 -1 -10 4 0 6 5 11 10
11 6 0 10 -2 10 -4z m1980 -21 c0 -8 -4 -15 -10 -15 -18 0 -11 -29 10 -42 11
-7 20 -18 20 -25 0 -7 4 -13 9 -13 5 0 7 -9 4 -20 -4 -16 -8 -18 -19 -9 -13
11 -18 5 -15 -15 1 -5 -9 -6 -23 -4 -19 4 -23 1 -18 -11 4 -11 -1 -10 -24 5
-51 36 -58 39 -52 22 5 -11 0 -14 -18 -10 -13 2 -24 9 -24 14 0 6 7 8 15 4 8
-3 15 0 15 6 0 6 -11 8 -30 5 -18 -4 -30 -2 -30 4 0 6 -4 7 -10 4 -5 -3 -10 3
-10 15 0 17 3 19 19 10 11 -5 30 -10 43 -10 19 0 20 2 8 11 -11 8 -8 9 15 5
35 -7 67 7 41 17 -20 8 -21 36 -1 43 8 4 12 10 9 15 -3 5 13 9 35 9 30 0 41
-4 41 -15z m-1630 -15 c0 -5 -4 -10 -10 -10 -5 0 -10 5 -10 10 0 6 5 10 10 10
6 0 10 -4 10 -10z m285 -30 c-3 -5 2 -10 13 -10 10 0 33 -7 50 -16 18 -8 36
-12 42 -9 6 4 9 2 8 -3 -2 -5 22 -34 52 -63 46 -45 58 -65 74 -119 12 -42 15
-65 8 -68 -6 -2 -8 -10 -5 -18 4 -10 -2 -17 -16 -21 -13 -3 -21 -13 -21 -26 0
-11 -3 -18 -6 -14 -3 3 -14 -2 -25 -11 -19 -17 -23 -18 -54 -21 -8 0 -15 -8
-15 -17 0 -10 -6 -14 -15 -10 -9 3 -15 0 -15 -9 0 -8 -4 -15 -10 -15 -5 0 -10
-4 -10 -10 0 -5 7 -10 15 -10 18 0 20 -20 3 -21 -7 0 -23 -2 -35 -3 -13 -2
-23 2 -24 8 0 6 -4 2 -8 -9 -8 -20 -8 -19 -15 2 -5 16 -14 21 -36 21 -18 -1
-30 -6 -30 -15 0 -8 -11 -13 -29 -13 -16 0 -31 -6 -35 -15 -3 -8 -10 -14 -15
-13 -5 2 -10 -1 -11 -7 -1 -5 -9 -18 -17 -28 -13 -13 -18 -14 -24 -5 -6 9 -10
8 -15 -5 -4 -10 -2 -23 5 -30 6 -6 11 -19 11 -29 0 -10 5 -18 10 -18 6 0 10 5
10 10 0 6 5 10 11 10 16 0 6 -35 -11 -35 -8 0 -20 -4 -27 -8 -7 -5 -16 1 -23
14 -7 11 -14 18 -17 15 -3 -3 0 -12 7 -21 10 -12 10 -18 0 -30 -8 -9 -17 -12
-24 -6 -6 4 -18 9 -26 9 -8 1 -37 6 -65 12 -27 6 -58 12 -68 13 -9 2 -23 9
-30 16 -9 10 -7 16 12 30 17 13 20 20 11 26 -9 6 -9 10 1 17 10 7 8 8 -8 5
-18 -4 -23 -1 -23 15 0 10 4 17 9 14 5 -3 11 3 14 14 3 11 1 20 -4 20 -4 0 -6
6 -3 14 4 10 -2 16 -18 18 -18 2 -23 9 -23 31 -1 18 4 27 15 27 24 0 40 21 40
50 0 19 5 26 20 26 11 0 20 -6 20 -13 0 -7 4 -13 10 -13 5 0 7 6 4 13 -4 10 3
12 27 9 23 -3 34 0 41 12 5 9 14 13 20 10 7 -5 8 -2 3 6 -5 9 -2 10 14 5 13
-4 21 -2 21 5 0 6 -4 9 -9 6 -4 -3 -19 6 -31 19 -20 21 -21 25 -6 25 9 0 14
-4 11 -10 -3 -5 -2 -10 4 -10 16 0 20 14 12 50 -4 19 -13 34 -20 32 -8 -1 -9
7 -5 25 9 37 9 37 36 19 23 -15 25 -15 38 9 7 13 17 22 22 19 5 -3 22 -3 38 1
21 5 30 13 30 26 0 10 7 19 15 19 8 0 15 7 15 16 0 22 21 39 49 41 13 1 31 9
40 18 17 17 25 20 16 5z m-680 -40 c3 -5 -1 -10 -10 -10 -9 0 -13 5 -10 10 3
6 8 10 10 10 2 0 7 -4 10 -10z m-130 -90 c-5 -8 -11 -8 -17 -2 -6 6 -7 16 -3
22 5 8 11 8 17 2 6 -6 7 -16 3 -22z m545 20 c0 -5 -2 -10 -4 -10 -3 0 -8 5
-11 10 -3 6 -1 10 4 10 6 0 11 -4 11 -10z m1344 -75 c-4 -8 -11 -12 -16 -9 -6
4 -5 10 3 15 19 12 19 11 13 -6z m-330 -21 c10 -26 -4 -37 -25 -18 -10 9 -16
21 -13 25 9 15 31 10 38 -7z m61 -24 c5 8 13 6 26 -6 10 -9 16 -20 14 -24 -3
-4 2 -7 10 -6 7 0 14 -3 14 -9 1 -5 -5 -10 -11 -10 -21 0 -40 -25 -35 -45 3
-11 -1 -21 -10 -24 -8 -3 -11 -10 -8 -16 8 -13 -1 -13 -26 0 -13 7 -19 7 -19
0 0 -5 5 -10 11 -10 6 0 9 -6 6 -14 -3 -8 -1 -17 6 -19 7 -2 1 -2 -13 1 -55
11 -65 8 -62 -15 2 -13 0 -24 -5 -24 -48 -7 -63 -6 -63 2 0 6 -4 8 -9 4 -5 -3
-13 0 -17 6 -8 13 16 30 31 21 6 -3 5 0 -1 9 -6 8 -15 25 -18 39 -6 18 -5 21
3 10 9 -12 11 -12 17 3 3 9 11 14 18 10 6 -4 5 1 -3 10 -8 10 -11 20 -7 24 3
3 6 1 6 -6 0 -7 4 -10 9 -7 5 3 11 -4 14 -16 5 -18 8 -19 21 -8 9 7 16 23 16
36 0 24 19 35 21 12 0 -10 2 -10 6 0 5 14 23 16 23 3 0 -5 -9 -13 -20 -16 -11
-4 -18 -11 -14 -16 3 -6 13 -8 21 -5 8 3 11 1 8 -4 -3 -6 3 -10 15 -10 12 0
19 4 15 9 -3 5 -1 12 4 15 13 9 -32 56 -53 56 -10 0 -14 5 -11 10 4 6 10 8 15
5 4 -3 10 5 13 17 5 17 9 19 21 9 10 -9 16 -9 21 -1z m-1135 -85 c0 -14 -4
-25 -9 -25 -12 0 -23 29 -15 41 10 18 24 9 24 -16z m1430 -15 c0 -5 -2 -10 -4
-10 -3 0 -8 5 -11 10 -3 6 -1 10 4 10 6 0 11 -4 11 -10z m-493 -15 c0 -8 -4
-12 -9 -9 -5 3 -6 10 -3 15 9 13 12 11 12 -6z m393 5 c0 -5 -7 -10 -15 -10 -8
0 -15 5 -15 10 0 6 7 10 15 10 8 0 15 -4 15 -10z m-70 -44 c0 -3 -4 -8 -10
-11 -5 -3 -10 -1 -10 4 0 6 5 11 10 11 6 0 10 -2 10 -4z m-334 -66 c-5 -27 2
-36 37 -45 4 -2 10 -4 15 -5 4 -1 12 -1 17 0 6 1 25 2 43 2 28 0 32 3 32 26 0
21 14 25 15 4 1 -15 31 -52 42 -52 6 0 19 10 27 22 21 30 21 14 0 -17 -10 -15
-12 -25 -5 -25 6 0 11 6 12 13 1 19 15 -24 22 -65 5 -32 3 -38 -12 -38 -9 0
-27 -13 -39 -30 -22 -29 -22 -29 -62 -15 l-40 14 6 -27 c4 -18 3 -23 -4 -14
-5 8 -13 13 -18 13 -17 -1 -44 10 -44 19 0 4 -8 7 -17 6 -10 -2 -29 4 -43 13
-13 9 -21 11 -17 5 4 -7 0 -15 -9 -18 -20 -8 -29 -8 -21 0 3 3 -2 14 -11 24
-15 18 -16 18 -38 -8 -21 -24 -23 -24 -17 -4 3 12 9 22 14 22 18 0 8 38 -13
54 -22 14 -22 16 -5 26 9 6 15 15 12 20 -7 11 15 52 34 64 11 7 11 10 0 17 -7
4 -10 11 -6 16 5 4 13 1 18 -7 8 -11 12 -12 16 -2 7 19 21 14 29 -10 7 -22 7
-22 15 -3 11 28 10 43 -1 25 -5 -8 -10 -10 -10 -4 0 15 11 24 22 18 6 -4 8
-19 4 -34z m-444 -5 c0 -5 -5 -11 -11 -13 -6 -2 -11 4 -11 13 0 9 5 15 11 13
6 -2 11 -8 11 -13z m-912 -55 c0 -5 -5 -10 -11 -10 -5 0 -7 5 -4 10 3 6 8 10
11 10 2 0 4 -4 4 -10z m1710 6 c0 -11 -19 -15 -25 -6 -3 5 1 10 9 10 9 0 16
-2 16 -4z m-500 -25 c0 -14 -18 -23 -30 -16 -6 4 -8 11 -5 16 8 12 35 12 35 0z
m570 -7 c0 -8 -5 -12 -10 -9 -6 4 -8 11 -5 16 9 14 15 11 15 -7z m-149 -37
c-10 -9 -11 -8 -5 6 3 10 9 15 12 12 3 -3 0 -11 -7 -18z m74 -17 c7 0 15 -9
18 -20 3 -11 1 -17 -4 -14 -5 3 -14 -5 -19 -18 l-11 -23 5 23 c4 20 1 23 -15
19 -10 -3 -19 0 -20 6 0 7 -2 20 -4 30 -3 15 -1 16 11 6 11 -9 14 -8 15 7 1
17 2 17 6 2 2 -10 10 -18 18 -18z m-770 0 c3 -5 1 -10 -4 -10 -6 0 -11 5 -11
10 0 6 2 10 4 10 3 0 8 -4 11 -10z m-665 -20 c0 -5 -7 -7 -15 -4 -8 4 -15 8
-15 10 0 2 7 4 15 4 8 0 15 -4 15 -10z m574 -5 c6 -17 4 -18 -18 -9 -20 8 -21
24 -2 24 8 0 16 -7 20 -15z m956 5 c0 -5 -4 -10 -10 -10 -5 0 -10 5 -10 10 0
6 5 10 10 10 6 0 10 -4 10 -10z m-1118 -35 c-8 -16 -9 -16 -15 -1 -4 10 -3 15
3 11 6 -3 10 -1 10 6 0 7 3 10 6 6 3 -3 2 -13 -4 -22z m128 -10 c0 -5 -5 -3
-10 5 -5 8 -10 20 -10 25 0 6 5 3 10 -5 5 -8 10 -19 10 -25z m46 -12 c-10 -10
-19 5 -10 18 6 11 8 11 12 0 2 -7 1 -15 -2 -18z m804 7 c0 -5 -4 -10 -10 -10
-5 0 -10 5 -10 10 0 6 5 10 10 10 6 0 10 -4 10 -10z m-160 -24 c0 -3 -4 -8
-10 -11 -5 -3 -10 -1 -10 4 0 6 5 11 10 11 6 0 10 -2 10 -4z m10 -45 c0 -5 -9
-7 -20 -4 -11 3 -20 7 -20 9 0 2 9 4 20 4 11 0 20 -4 20 -9z m-216 -17 c22
-22 20 -24 -9 -11 -14 7 -25 15 -25 20 0 12 18 8 34 -9z m155 -1 c-8 -9 -13
-24 -11 -35 4 -22 -11 -23 -32 -3 -9 9 -22 12 -33 8 -17 -6 -17 -6 -1 10 9 9
24 14 32 11 9 -3 16 -1 16 4 0 6 8 13 18 15 9 3 19 5 21 6 2 0 -3 -6 -10 -16z
m-669 -24 c0 -5 -4 -9 -8 -9 -5 0 -9 7 -9 15 0 8 4 12 9 9 4 -3 8 -9 8 -15z
m790 11 c0 -5 -4 -10 -10 -10 -5 0 -10 5 -10 10 0 6 5 10 10 10 6 0 10 -4 10
-10z m-1300 -40 c0 -5 -4 -10 -10 -10 -5 0 -10 5 -10 10 0 6 5 10 10 10 6 0
10 -4 10 -10z m590 0 c0 -5 -4 -10 -10 -10 -5 0 -10 5 -10 10 0 6 5 10 10 10
6 0 10 -4 10 -10z m390 -20 c0 -5 -4 -10 -10 -10 -5 0 -10 5 -10 10 0 6 5 10
10 10 6 0 10 -4 10 -10z m430 -10 c0 -5 -4 -10 -9 -10 -6 0 -13 5 -16 10 -3 6
1 10 9 10 9 0 16 -4 16 -10z m-360 -10 c0 -5 -4 -10 -10 -10 -5 0 -10 5 -10
10 0 6 5 10 10 10 6 0 10 -4 10 -10z m-700 -10 c0 -5 -4 -10 -10 -10 -5 0 -10
5 -10 10 0 6 5 10 10 10 6 0 10 -4 10 -10z m-190 -24 c0 -3 -4 -8 -10 -11 -5
-3 -10 -1 -10 4 0 6 5 11 10 11 6 0 10 -2 10 -4z m1150 -37 c0 -5 -6 -9 -14
-9 -8 0 -16 -4 -18 -9 -1 -4 -13 2 -25 13 l-23 22 40 -4 c22 -2 40 -8 40 -13z
m-990 -19 c0 -5 -2 -10 -4 -10 -3 0 -8 5 -11 10 -3 6 -1 10 4 10 6 0 11 -4 11
-10z m1440 -70 c0 -11 -2 -20 -4 -20 -2 0 -6 9 -9 20 -3 11 -1 20 4 20 5 0 9
-9 9 -20z m-1700 -90 c0 -5 -4 -10 -10 -10 -5 0 -10 5 -10 10 0 6 5 10 10 10
6 0 10 -4 10 -10z m1030 -4 c0 -3 -4 -8 -10 -11 -5 -3 -10 -1 -10 4 0 6 5 11
10 11 6 0 10 -2 10 -4z m-1140 -136 c0 -5 -4 -10 -10 -10 -5 0 -10 5 -10 10 0
6 5 10 10 10 6 0 10 -4 10 -10z m610 -50 c0 -5 -7 -10 -16 -10 -8 0 -12 5 -9
10 3 6 10 10 16 10 5 0 9 -4 9 -10z m285 -10 c3 -5 1 -10 -4 -10 -6 0 -11 5
-11 10 0 6 2 10 4 10 3 0 8 -4 11 -10z"/>
<path d="M633 1785 c0 -8 4 -12 9 -9 5 3 6 10 3 15 -9 13 -12 11 -12 -6z"/>
<path d="M440 1500 c0 -5 7 -10 16 -10 8 0 12 5 9 10 -3 6 -10 10 -16 10 -5 0
-9 -4 -9 -10z"/>
<path d="M1385 1640 c-3 -5 -1 -10 4 -10 6 0 11 5 11 10 0 6 -2 10 -4 10 -3 0
-8 -4 -11 -10z"/>
<path d="M1366 1611 c9 -9 34 -9 34 -1 0 5 -9 8 -20 7 -10 -1 -17 -3 -14 -6z"/>
<path d="M1407 1583 c-4 -3 -7 -11 -7 -17 0 -6 5 -5 12 2 6 6 9 14 7 17 -3 3
-9 2 -12 -2z"/>
<path d="M1680 1500 c0 -5 5 -10 10 -10 6 0 10 5 10 10 0 6 -4 10 -10 10 -5 0
-10 -4 -10 -10z"/>
<path d="M1646 1481 c-4 -5 -2 -12 3 -15 5 -4 12 -2 15 3 4 5 2 12 -3 15 -5 4
-12 2 -15 -3z"/>
<path d="M1617 1473 c-7 -12 4 -27 22 -31 12 -3 12 -1 1 15 -8 10 -15 19 -16
21 -1 2 -4 -1 -7 -5z"/>
<path d="M1845 1329 c-4 -6 -5 -12 -2 -15 2 -3 7 2 10 11 7 17 1 20 -8 4z"/>
</g>
</svg>
