<?xml version="1.0" standalone="no"?>
<!DOCTYPE svg PUBLIC "-//W3C//DTD SVG 20010904//EN"
 "http://www.w3.org/TR/2001/REC-SVG-20010904/DTD/svg10.dtd">
<svg version="1.0" xmlns="http://www.w3.org/2000/svg"
 width="500.000000pt" height="500.000000pt" viewBox="0 0 500.000000 500.000000"
 preserveAspectRatio="xMidYMid meet">

<g transform="translate(0.000000,500.000000) scale(0.100000,-0.100000)"
fill="#000000" stroke="none">
<path d="M0 2500 l0 -2500 2500 0 2500 0 0 2500 0 2500 -2500 0 -2500 0 0
-2500z m3068 1839 l561 -565 -570 -570 -569 -569 -265 265 -265 265 0 51 c0
51 -1 52 -34 58 -65 12 -70 29 -76 215 -5 178 -9 191 -63 248 l-31 33 26 27
c61 66 63 74 68 266 5 173 6 179 29 198 13 10 36 19 52 19 28 0 29 1 29 52 l0
53 263 263 c144 144 267 261 273 260 6 -2 263 -258 572 -569z m-1362 -405 c-3
-12 -32 -41 -63 -65 -69 -51 -73 -56 -73 -94 0 -24 13 -42 70 -95 l70 -65 0
-100 0 -100 -180 180 -180 180 177 178 178 177 3 -87 c2 -49 0 -98 -2 -109z
m79 -2004 l-570 -570 -273 273 -274 274 51 67 c28 37 51 62 51 55 0 -22 41 24
66 74 16 31 31 47 43 47 10 0 24 7 31 15 17 21 33 19 58 -8 31 -33 54 -94 61
-162 8 -77 27 -79 63 -5 52 106 56 221 12 313 l-17 36 55 108 c124 241 157
513 88 735 -27 87 -37 95 -94 70 -218 -97 -429 -366 -497 -633 l-21 -85 -48
-17 c-89 -32 -168 -121 -209 -236 l-17 -50 -135 135 -134 134 570 570 570 570
570 -570 570 -570 -570 -570z m2560 0 l-570 -570 -402 402 -403 403 34 95 c41
114 77 261 107 430 12 69 24 128 28 131 3 3 42 2 87 -4 l81 -9 6 -167 c10
-247 42 -423 99 -534 28 -56 93 -123 142 -147 75 -36 219 -22 271 26 35 33 35
95 -1 131 -27 26 -47 27 -151 7 -99 -19 -170 199 -176 538 l-2 142 77 12 c97
15 137 28 221 72 117 60 147 124 88 183 -38 38 -68 37 -144 -5 -113 -62 -155
-71 -322 -71 -82 0 -177 4 -209 8 l-59 9 314 314 314 314 570 -570 570 -570
-570 -570z m-1419 768 c-18 -98 -82 -352 -94 -375 -5 -9 -35 15 -102 82 l-95
95 150 150 c82 82 151 147 153 145 2 -2 -3 -46 -12 -97z m144 -913 l565 -565
-565 -565 -565 -565 -242 242 c-134 134 -242 247 -240 252 2 5 32 22 68 37 92
40 149 39 223 -6 32 -19 63 -35 68 -35 21 0 148 133 148 155 0 11 -11 36 -25
55 -53 72 -55 137 -6 245 32 70 75 110 134 125 102 27 92 13 95 129 3 110 -4
131 -42 131 -40 0 -95 21 -127 47 -33 28 -83 128 -94 186 -8 44 8 104 40 147
14 19 25 43 25 54 0 25 -127 156 -151 156 -9 0 -27 -8 -40 -19 -66 -51 -162
-68 -205 -36 -18 13 -9 24 171 205 104 104 192 190 195 190 3 0 259 -254 570
-565z m-2454 508 c4 -16 11 -33 16 -39 5 -7 2 -35 -7 -70 -18 -68 -19 -94 -5
-94 6 0 8 -10 6 -22 -3 -13 -8 -41 -11 -62 l-7 -39 -119 119 -119 118 23 24
c51 55 123 91 184 92 27 0 34 -4 39 -27z m1299 -782 c156 -71 188 -268 63
-388 -113 -108 -296 -73 -370 71 -58 112 2 268 122 320 48 21 136 20 185 -3z"/>
<path d="M2180 4351 l0 -71 29 0 c16 0 39 -9 52 -19 23 -19 24 -25 29 -198 5
-164 7 -181 28 -215 13 -21 34 -46 47 -56 l24 -19 -31 -29 c-58 -55 -68 -92
-68 -260 0 -137 -2 -154 -20 -177 -12 -15 -36 -29 -55 -33 l-35 -6 0 -69 c0
-77 -1 -77 80 -58 66 15 115 53 145 112 24 48 25 60 25 206 l0 155 70 66 c57
53 70 71 70 96 0 36 -10 49 -70 95 -25 18 -50 41 -57 49 -7 10 -13 75 -15 186
-3 167 -4 171 -31 212 -39 59 -96 94 -163 100 l-54 4 0 -71z"/>
<path d="M3246 3752 c-4 -7 -4 -21 -1 -33 6 -17 3 -20 -17 -17 -35 5 -37 -14
-3 -25 17 -5 37 -16 47 -24 19 -17 36 1 19 21 -6 7 -17 30 -24 51 -9 24 -16
34 -21 27z"/>
<path d="M3152 3654 c-24 -17 -30 -62 -10 -82 38 -38 113 12 88 58 -11 21 -12
21 -31 4 -22 -20 -26 -42 -4 -24 12 10 15 9 15 -4 0 -22 -27 -31 -45 -16 -22
19 -18 39 11 50 14 6 22 14 19 20 -8 14 -17 13 -43 -6z"/>
<path d="M3057 3562 c-33 -36 -8 -92 40 -92 25 0 53 30 53 57 0 46 -62 69 -93
35z m62 -53 c-12 -23 -23 -24 -43 -3 -21 20 -20 31 1 43 26 14 56 -15 42 -40z"/>
<path d="M2977 3482 c-4 -5 11 -25 32 -46 37 -36 37 -37 56 -16 19 21 13 42
-7 22 -9 -9 -19 -5 -44 19 -17 17 -34 27 -37 21z"/>
<path d="M2914 3415 c-21 -33 -6 -72 31 -81 50 -13 86 53 49 90 -24 24 -61 20
-80 -9z m66 -10 c17 -20 5 -45 -20 -45 -23 0 -35 22 -26 45 7 19 30 19 46 0z"/>
<path d="M2857 3363 c-4 -3 3 -17 15 -30 l22 -24 -41 7 c-22 3 -43 2 -46 -3
-4 -5 11 -27 32 -47 26 -25 41 -34 46 -26 4 6 -1 21 -12 32 -18 21 -18 21 19
14 51 -9 57 9 17 50 -34 35 -41 39 -52 27z"/>
<path d="M2777 3284 c-4 -4 0 -15 8 -24 14 -15 14 -18 0 -30 -12 -10 -18 -10
-30 0 -8 6 -19 9 -25 5 -8 -5 1 -21 26 -46 24 -25 42 -35 48 -29 6 6 4 15 -4
25 -10 12 -10 18 0 30 12 14 15 14 30 0 10 -9 21 -12 24 -7 7 11 -68 85 -77
76z"/>
<path d="M2665 3166 c-19 -28 -9 -58 26 -76 28 -16 69 11 69 45 0 32 -8 32
-20 -1 -13 -33 -53 -30 -58 3 -3 17 3 26 22 33 33 12 33 20 1 20 -15 0 -31 -9
-40 -24z"/>
<path d="M2595 3100 c-18 -20 -18 -22 18 -57 l36 -37 26 24 c26 24 27 42 1 21
-20 -17 -41 -4 -25 15 15 18 4 31 -14 16 -21 -18 -29 -1 -10 20 14 15 14 18 1
18 -8 0 -23 -9 -33 -20z"/>
<path d="M2536 3041 c-16 -17 -23 -31 -18 -35 6 -4 14 -1 17 5 5 7 19 -1 40
-21 18 -17 35 -28 39 -22 3 5 -8 22 -24 37 -22 21 -27 32 -19 41 22 26 -9 22
-35 -5z"/>
<path d="M1810 2315 l-24 -26 37 -36 36 -37 25 23 c28 26 24 52 -3 27 -20 -19
-36 -9 -19 11 6 7 8 16 5 20 -4 3 -13 1 -20 -5 -18 -15 -30 -3 -16 14 22 26 3
35 -21 9z"/>
<path d="M1735 2240 c-25 -28 -10 -71 28 -84 22 -8 31 -6 48 11 13 13 19 29
17 44 -4 24 -5 24 -16 -4 -15 -35 -55 -35 -60 1 -2 12 1 22 5 22 5 0 18 7 29
15 18 14 18 14 -7 15 -14 0 -34 -9 -44 -20z"/>
<path d="M1677 2183 c-4 -3 3 -17 15 -30 l22 -24 -41 7 c-22 3 -43 2 -46 -3
-4 -5 11 -27 32 -47 26 -25 41 -34 46 -26 4 6 -1 21 -12 32 -18 21 -18 21 19
14 51 -9 57 9 17 50 -34 35 -41 39 -52 27z"/>
<path d="M1582 2087 l-22 -23 38 -37 38 -37 22 23 c23 24 19 45 -5 25 -18 -14
-29 -3 -15 15 7 8 9 17 5 20 -3 4 -12 2 -20 -5 -18 -15 -29 -2 -14 16 20 24
-5 27 -27 3z"/>
<path d="M1537 2043 c-4 -6 11 -27 32 -47 21 -21 41 -34 44 -29 4 6 -11 27
-32 47 -21 21 -41 34 -44 29z"/>
<path d="M1475 1976 c-19 -28 -9 -58 26 -76 28 -16 69 11 69 45 0 32 -8 32
-20 -1 -7 -19 -16 -25 -33 -22 -33 5 -36 45 -3 58 33 12 33 20 1 20 -15 0 -31
-9 -40 -24z"/>
<path d="M1402 1908 c-31 -31 0 -68 40 -47 30 16 36 0 8 -21 -25 -19 -25 -20
-3 -20 25 0 54 36 46 57 -5 12 -16 14 -47 9 l-41 -6 25 20 c23 18 24 20 5 20
-12 0 -26 -5 -33 -12z"/>
<path d="M4505 2480 c-28 -30 -12 -54 30 -46 22 4 35 3 35 -4 0 -5 -7 -10 -15
-10 -16 0 -20 -15 -7 -24 12 -7 52 22 52 38 0 25 -26 37 -54 26 -14 -5 -26 -6
-26 -1 0 5 7 11 15 15 8 3 15 10 15 16 0 17 -26 11 -45 -10z"/>
<path d="M4448 2419 c-32 -18 -41 -48 -23 -75 30 -46 102 -24 93 28 -4 23 -5
22 -16 -4 -12 -30 -31 -35 -50 -16 -19 19 -14 38 14 48 14 6 22 14 19 20 -8
12 -15 12 -37 -1z"/>
<path d="M4375 2350 c-10 -17 61 -88 75 -74 7 7 -3 22 -29 48 -27 26 -41 34
-46 26z"/>
<path d="M4326 2301 c-16 -17 -23 -31 -18 -35 6 -4 14 -1 17 5 5 7 19 -1 40
-21 18 -17 35 -28 39 -22 3 5 -8 22 -24 37 -22 21 -27 32 -19 41 22 26 -9 22
-35 -5z"/>
<path d="M4252 2228 c-12 -12 28 -109 43 -104 6 2 9 10 7 18 -3 18 21 40 38
36 7 -2 14 2 16 7 6 15 -92 55 -104 43z m48 -38 c0 -5 -4 -10 -10 -10 -5 0
-10 5 -10 10 0 6 5 10 10 10 6 0 10 -4 10 -10z"/>
<path d="M4194 2166 c-4 -9 -1 -29 5 -43 15 -34 9 -38 -27 -19 -24 13 -32 13
-41 3 -8 -10 -1 -23 28 -51 26 -25 41 -34 46 -26 4 6 -1 21 -12 32 -18 21 -18
21 4 9 44 -23 50 -14 28 44 -8 18 -6 18 17 -3 43 -39 40 -8 -2 33 -34 33 -40
36 -46 21z"/>
<path d="M4082 2057 l-22 -23 38 -37 38 -37 23 24 c13 14 18 26 12 30 -5 4
-12 2 -16 -4 -13 -21 -25 -9 -19 18 7 24 6 26 -10 13 -20 -17 -33 -7 -17 13
20 24 -5 27 -27 3z"/>
<path d="M4037 2014 c-3 -3 -1 -15 6 -25 16 -26 -5 -48 -27 -30 -8 7 -20 10
-26 6 -8 -5 1 -21 26 -46 24 -25 42 -35 48 -29 6 6 4 15 -4 25 -10 12 -10 18
0 30 12 14 15 14 30 0 10 -9 21 -12 24 -7 6 11 -68 85 -77 76z"/>
<path d="M3934 1909 c-27 -29 -27 -31 -7 -27 13 2 33 -8 51 -25 39 -37 55 -17
18 22 -17 18 -24 34 -20 44 10 27 -10 20 -42 -14z"/>
<path d="M3864 1839 c-8 -14 36 -110 48 -103 4 3 8 14 8 25 0 11 7 22 15 24
51 16 51 16 5 40 -51 27 -66 30 -76 14z m51 -28 c3 -5 1 -12 -4 -15 -5 -3 -11
1 -15 9 -6 16 9 21 19 6z"/>
<path d="M3806 1781 c-3 -5 1 -25 9 -44 l15 -36 -36 15 c-57 24 -67 3 -21 -43
36 -37 62 -39 39 -3 -11 18 -10 19 13 10 29 -11 40 1 25 29 -16 30 -12 36 10
16 35 -32 35 -6 0 30 -35 36 -45 41 -54 26z"/>
<path d="M3222 1167 c-52 -24 -30 -97 29 -97 40 0 62 44 39 80 -7 12 -12 12
-29 -4 -23 -21 -18 -44 5 -25 15 13 19 2 5 -19 -12 -19 -45 -11 -49 12 -3 11
5 26 18 36 27 20 15 32 -18 17z"/>
<path d="M3150 1091 c0 -5 7 -14 15 -21 25 -21 17 -28 -20 -20 -50 11 -54 -6
-12 -48 40 -40 64 -37 27 3 l-24 25 47 -6 c56 -8 59 1 14 44 -33 32 -47 39
-47 23z"/>
<path d="M3066 1013 c-8 -9 54 -73 71 -73 21 0 15 14 -20 48 -35 34 -40 36
-51 25z"/>
<path d="M3012 957 l-22 -23 33 -32 c31 -30 57 -41 57 -24 0 4 -6 14 -12 21
-11 11 -8 12 14 7 31 -7 50 13 20 21 -12 3 -22 15 -24 27 -4 30 -39 32 -66 3z
m39 -20 c-13 -13 -26 -3 -16 12 3 6 11 8 17 5 6 -4 6 -10 -1 -17z"/>
<path d="M2952 897 l-22 -23 33 -32 c39 -37 48 -39 72 -12 21 23 13 39 -10 20
-19 -16 -32 -6 -17 13 15 18 3 30 -15 15 -17 -14 -31 -2 -15 14 7 7 12 16 12
20 0 15 -16 8 -38 -15z"/>
<path d="M2895 840 c-19 -20 -18 -22 18 -58 l37 -37 22 22 c12 13 19 26 15 30
-4 3 -13 1 -19 -5 -20 -20 -31 -13 -23 15 5 23 4 25 -10 13 -21 -17 -32 -4
-17 20 16 26 0 26 -23 0z"/>
<path d="M2847 793 c-4 -3 3 -17 15 -30 l22 -23 -32 6 c-17 4 -39 3 -48 0 -15
-6 -12 -12 16 -41 19 -19 40 -35 47 -35 18 0 16 10 -8 36 l-21 22 39 -8 c55
-13 64 3 23 45 -35 36 -42 40 -53 28z"/>
<path d="M2767 713 c-4 -6 11 -27 32 -47 21 -21 41 -34 44 -29 4 6 -11 27 -32
47 -21 21 -41 34 -44 29z"/>
<path d="M2728 669 c-10 -5 -23 -19 -29 -30 -24 -45 52 -94 89 -57 15 15 16
64 2 73 -14 9 -40 -13 -40 -32 0 -13 3 -13 16 -2 14 12 16 11 13 -6 -5 -25
-38 -26 -53 -2 -9 16 -7 22 12 34 36 25 27 44 -10 22z"/>
<path d="M2650 593 c0 -3 8 -15 18 -26 17 -20 16 -20 -20 -14 -52 8 -57 -9
-15 -51 36 -36 65 -39 34 -4 -25 27 -21 31 23 25 49 -7 50 3 7 45 -32 31 -47
39 -47 25z"/>
<path d="M2555 500 c-19 -20 -18 -22 18 -58 l37 -37 22 22 c23 24 18 44 -6 24
-19 -16 -32 4 -16 24 14 17 -1 20 -17 4 -16 -16 -28 8 -13 26 19 23 -5 18 -25
-5z"/>
</g>
</svg>
